<?xml version="1.0" encoding="utf-8"?>
<!-- Generator: Adobe Illustrator 23.0.1, SVG Export Plug-In . SVG Version: 6.00 Build 0)  -->
<svg version="1.1" id="Layer_1" xmlns="http://www.w3.org/2000/svg" xmlns:xlink="http://www.w3.org/1999/xlink" x="0px" y="0px"
	 viewBox="0 0 1185 264" style="enable-background:new 0 0 1185 264;" xml:space="preserve">
<title>logo</title>
<path d="M343,224.7h-34.2c-6.5,0-11.5-3.8-10.6-8.1l11.2-53.1c0.9-4.3-4.1-8.1-10.6-8.1h-42c-5.3,0-9.8,2.6-10.6,6.1l-12.1,57
	c-0.7,3.5-5.2,6.1-10.6,6.1H190c-6.5,0-11.5-3.8-10.6-8.1l36-171.7c0.7-3.5,5.2-6.1,10.6-6.1h33.8c6.5,0,11.5,3.8,10.6,8.1
	l-11.1,52.6c-0.9,4.3,4.1,8.1,10.6,8.1h42.4c5.3,0,9.8-2.6,10.6-6.1l11.9-56.6c0.7-3.5,5.2-6.1,10.6-6.1h34c6.5,0,11.5,3.8,10.6,8.1
	l-36.2,171.7C352.8,222.1,348.3,224.7,343,224.7z"/>
<path d="M565.7,86.9c0,14.1-4.8,26.2-14.5,36.1c-8.6,9.5-22.4,16.4-38.4,19.3v0.6c13.4,5,21.8,16.1,25.6,33.2l8.6,40.5
	c0.9,4.3-4.1,8.1-10.6,8.1h-37c-5.4,0-10-2.7-10.6-6.4l-5.7-34.9c-1.5-7.8-4-13.7-7.5-17.8c-3.1-3.9-9.2-6.3-15.9-6.2H459
	l-12.3,59.2c-0.7,3.5-5.2,6.1-10.6,6.1h-33.6c-6.5,0-11.5-3.8-10.6-8.1L427.7,45c0.7-3.5,5.2-6.1,10.6-6.1h62.8
	c20.3,0,36.3,4.2,47.6,12.6C560.2,59.8,565.9,71.7,565.7,86.9z M506.6,97.3c0-6.2-1.7-11.1-5-14.6c-3.4-3.4-9-5.5-15.1-5.2h-0.6
	c-5.3,0-9.8,2.6-10.6,6.1l-6.3,28.3c-1,4.3,4,8.2,10.6,8.2l0,0c7.8,0.1,15.3-2.4,19.9-6.6C504.2,108.8,507,103.2,506.6,97.3z"/>
<path d="M783.6,224.7h-33c-6.5,0-11.5-3.8-10.6-8.1l21.2-101.2l6.1-27.9h-1l-9.4,23.1l-49.5,109.2c-1.4,3-5.5,5.1-10.2,5.1h-32.8
	c-5.7,0-10.4-3-10.7-6.8l-6.1-100.8c-0.6-7.3-0.8-17.1-0.8-29.5h-1c-2.5,19-5.2,36.5-8.6,52.4l-16.5,78.7c-0.7,3.5-5.2,6.1-10.6,6.1
	h-27.5c-6.5,0-11.5-3.8-10.6-8.1L607.8,45c0.7-3.5,5.2-6.1,10.6-6.1h58c5.7,0,10.4,3,10.7,6.8l6.1,104.2c0,5.6-0.2,11.5-0.6,17.5
	h0.8c1.5-4.2,2.9-8.5,4.4-13c1.5-4.5,3.1-8.7,4.8-12.2L745.1,44c1.3-3,5.5-5.1,10.2-5.1h64.2c6.5,0,11.5,3.8,10.6,8.1l-36,171.5
	C793.4,222.1,788.9,224.7,783.6,224.7z"/>
<path d="M974,79.2c-1,5.1-9.6,7.9-16.2,5.1c-3.4-1.4-6.9-2.7-10.5-3.8c-6.9-2-14.3-3.1-21.6-3.1c-5.2-0.1-10.3,1.3-13.8,3.8
	c-3.6,2.8-5.2,6.3-5,9.8c-0.2,3.5,1.3,6.9,4.2,9.8c2.7,2.8,8.6,6.7,17.6,11.8c14.5,7.8,24.7,15.8,30.4,24.1s8.6,18.8,8.6,31.5
	c0.2,11.1-3.1,22.1-10.1,32.2c-5.7,8.7-15.3,16.1-27.5,21c-12.6,4.8-27,7.1-41.5,6.9c-11.1,0-22.2-1.3-32.5-3.9
	c-7.5-1.9-14.7-4.4-21.2-7.5c-3.3-1.6-5.1-4.2-4.5-6.9l5.9-28.1c1.1-5.5,10.7-7.9,17.2-4.5c11.7,6.1,23.4,9.1,35.1,9.1
	c13.4,0,20.1-4.8,20.1-14.4c0.2-3.8-1.5-7.4-4.6-10.4c-0.3-0.2-0.5-0.5-0.8-0.7c-4.9-3.8-10.6-7-17-9.7c-13.8-6.6-23.7-14-29.6-22.1
	c-5.9-8.1-8.8-18.6-8.8-31.4c-0.2-11.2,3.1-22.3,9.6-32.6c6.5-9.7,15.3-17.1,26.6-21.8c11.7-4.9,25.4-7.6,39.2-7.3
	c10.7-0.1,21.4,1,31.6,3.2c6.3,1.4,12.4,3.1,18.4,5c4.2,1.3,6.5,4.3,5.9,7.3L974,79.2z"/>
</svg>
